<svg xmlns="http://www.w3.org/2000/svg" viewBox="0 0 442.66 54.01"><defs><style>.cls-1{fill:#fe9c00;}.cls-2{fill:#fec400;}.cls-3{fill:#fff;}</style></defs><title>openapidesignerAsset 17</title><g id="Layer_2" data-name="Layer 2"><g id="Layer_1-2" data-name="Layer 1"><path d="M109.87,31.31c0,7.88-5.53,13.26-13.55,13.26s-13.6-5.38-13.6-13.26,5.53-13.16,13.6-13.16S109.87,23.49,109.87,31.31Zm-21.52.1c0,5,3.28,8.46,8,8.46s7.92-3.42,7.92-8.46-3.28-8.46-7.92-8.46S88.35,26.42,88.35,31.41Z"/><path d="M139,31.46c0,7.78-4.89,13.11-12.33,13.11-4.16,0-7.29-1.66-9.2-4.7v14H111.9V18.35h5.63v4.5a10.17,10.17,0,0,1,9.1-4.7C134,18.16,139,23.54,139,31.46Zm-5.67-.2c0-4.84-3.28-8.41-7.92-8.41s-7.92,3.52-7.92,8.41,3.28,8.51,7.92,8.51S133.37,36.25,133.37,31.26Z"/><path d="M166.06,33.51H146.39A7.92,7.92,0,0,0,154.46,40a10.12,10.12,0,0,0,7.34-3l3,3.18A14.16,14.16,0,0,1,154,44.57c-8,0-13.31-5.33-13.31-13.16s5.43-13.21,13.16-13.26C163,18.16,166.74,24.12,166.06,33.51Zm-4.89-4.11c-.2-4.21-3-6.75-7.24-6.75a7.37,7.37,0,0,0-7.63,6.75Z"/><path d="M192.88,28.18V44.37h-5.63V29.75c0-3.91-2.35-6.31-6.26-6.31-4.3,0-7,3-7.39,7.09V44.37H168v-26h5.63v5c1.86-3.62,5.19-5.19,9.59-5.19C189.26,18.16,192.88,22,192.88,28.18Z"/><path d="M286.73,8.08v36.3h-5.63V39.92c-1.86,3-5,4.7-9.15,4.7-7.48,0-12.47-5.43-12.47-13.35s5-13.16,12.38-13.16c4.21,0,7.34,1.71,9.24,4.74V8.08Zm-5.63,23.38c0-5-3.28-8.56-8-8.56s-8,3.57-8,8.56,3.28,8.46,8,8.46S281.11,36.4,281.11,31.46Z"/><path d="M314.1,33.51H294.43A7.92,7.92,0,0,0,302.5,40a10.12,10.12,0,0,0,7.34-3l3,3.18a14.16,14.16,0,0,1-10.76,4.4c-8,0-13.3-5.33-13.3-13.16s5.43-13.21,13.16-13.26C311.06,18.16,314.78,24.12,314.1,33.51Zm-4.89-4.11c-.2-4.21-3-6.75-7.24-6.75a7.37,7.37,0,0,0-7.63,6.75Z"/><path d="M325.41,22.61c-2.2,0-3.82.73-3.82,2.59,0,4.79,13.84,2.2,13.79,11.64,0,5.33-4.74,7.73-10,7.73A16.1,16.1,0,0,1,314.94,41l2-4a14.18,14.18,0,0,0,8.71,3.23c2.4,0,4.26-.83,4.26-2.79,0-5.33-13.7-2.35-13.65-11.74,0-5.28,4.6-7.53,9.59-7.53a16.45,16.45,0,0,1,9.1,2.64l-2.05,4.16A15.3,15.3,0,0,0,325.41,22.61Z"/><path d="M343.62,10.92a3.28,3.28,0,1,1-6.55,0,3.28,3.28,0,1,1,6.55,0Zm-.49,7.44v26h-5.58v-26Z"/><path d="M371.42,18.35V41.83c0,7.48-5.33,12.18-13.5,12.18a18.92,18.92,0,0,1-10.81-3.42l2.4-4.06a13.14,13.14,0,0,0,8.17,2.84c4.94,0,8.17-2.89,8.17-7.39V38.7c-1.76,2.84-4.7,4.4-8.61,4.4-7,0-11.74-5.09-11.74-12.57S350.15,18.2,357,18.16c4,0,7,1.57,8.8,4.4V18.35Zm-5.58,12.33c0-4.7-3.08-8-7.48-8s-7.53,3.33-7.58,8,3.08,8,7.58,8S365.85,35.37,365.85,30.68Z"/><path d="M398.6,28.18V44.37H393V29.75c0-3.91-2.35-6.31-6.26-6.31-4.3,0-7,3-7.39,7.09V44.37H373.7v-26h5.63v5c1.86-3.62,5.19-5.19,9.59-5.19C395,18.16,398.6,22,398.6,28.18Z"/><path d="M425.67,33.51H406A7.92,7.92,0,0,0,414.08,40a10.12,10.12,0,0,0,7.34-3l3,3.18a14.16,14.16,0,0,1-10.76,4.4c-8,0-13.3-5.33-13.3-13.16s5.43-13.21,13.16-13.26C422.64,18.16,426.35,24.12,425.67,33.51Zm-4.89-4.11c-.2-4.21-3-6.75-7.24-6.75a7.37,7.37,0,0,0-7.63,6.75Z"/><path d="M442.66,18.16v5.38c-5.23-.29-8.56,2.79-9,7.24v13.6H428v-26h5.63v5.19A9.46,9.46,0,0,1,442.66,18.16Z"/><path class="cls-1" d="M213.69,44.37V41.19c-1.86,2.3-4.84,3.42-8.61,3.42-5.63,0-9.15-3.47-9.15-8.07s3.57-7.78,9.83-7.83h7.88v-.78c0-3.28-2.1-5.23-6.21-5.23a13.72,13.72,0,0,0-7.68,2.64l-2.3-3.91c3.62-2.15,6.26-3.28,11.2-3.28,6.7,0,10.47,3.42,10.52,9.15l0,17.07Zm0-9.15v-2.4h-7c-3.67,0-5.38,1-5.38,3.47s1.91,3.86,5,3.86C210.26,40.17,213.34,38.06,213.64,35.23Z"/><path class="cls-1" d="M249,31.46c0,7.78-4.89,13.11-12.33,13.11-4.16,0-7.29-1.66-9.2-4.7v14h-5.63V18.35h5.63v4.5a10.17,10.17,0,0,1,9.1-4.7C244,18.16,249,23.54,249,31.46Zm-5.67-.2c0-4.84-3.28-8.41-7.92-8.41s-7.92,3.52-7.92,8.41,3.28,8.51,7.92,8.51S243.36,36.25,243.36,31.26Z"/><path class="cls-1" d="M257,10.84a3.28,3.28,0,1,1-6.55,0,3.28,3.28,0,1,1,6.55,0Zm-.49,7.44v26H251v-26Z"/><path class="cls-1" d="M40.83,40,43,37.27c2.56-3.32,5.3-6.62,7.22-10.35,1-2,2.56-6-.45-7.08-1.33-.49-2.66.37-3.6,1.24a19.91,19.91,0,0,0-2.61,3.08C40,29.07,37.28,34.52,34.19,39.69a51.39,51.39,0,0,1-5,7.29c-.75.88-2,2.36-3.24,2.41-1.64.06-1.29-1.89-.93-2.85,1-2.74,3.08-5.16,4.91-7.41,2-2.4,4-4.73,6.08-7.05s4.07-4.57,6-6.92a47.77,47.77,0,0,0,5.17-7.06c1.11-2,2.51-5.56-.21-7-2.55-1.31-5.33,2-6.76,3.7-4,4.61-7.29,9.77-10.76,14.75-1.79,2.56-3.59,5.12-5.49,7.6a43.87,43.87,0,0,1-5.79,6.55A10.22,10.22,0,0,1,16.53,45c-.4.22-1,.59-1.51.38-1.08-.49.19-2.73.51-3.34a41.65,41.65,0,0,1,5.34-7.24c4.06-4.72,8.45-9.13,12.72-13.68,2.06-2.19,4.11-4.42,6-6.78a25.27,25.27,0,0,0,2.58-3.75A5.74,5.74,0,0,0,43,7c-.43-2.65-3.56-3.28-5.72-2.45a13.93,13.93,0,0,0-4.65,3.3c1.16-1.84,1.86-3.94.6-5.82A5.17,5.17,0,0,0,29,0a8.39,8.39,0,0,0-4.71,1.54c-2.89,1.9-5.13,4.76-7.17,7.51-2.22,3-4.24,6.16-6.33,9.28-1,1.53-2.06,3.07-3.19,4.54-.28.37-.58.74-.88,1.1a3.27,3.27,0,0,1-.74.79c-.77.44-.46-1.13-.42-1.49.74-6.62,5.27-12.76,11-16a3,3,0,0,0,.15-5c-2.08-1.33-4.3.62-5.9,1.84a28.4,28.4,0,0,0-9.49,13.1A20.42,20.42,0,0,0,0,25.51c.22,2.59,1.48,5.54,4.41,5.83l.32,0a9.15,9.15,0,0,0-1.41,5.71A4.64,4.64,0,0,0,9,41.16c2.53-.65,4.58-2.83,6.27-4.72a21.75,21.75,0,0,0-3.45,6,5.25,5.25,0,0,0,0,4.08,3.87,3.87,0,0,0,3,2c2.64.3,5-2,6.69-3.7a62.86,62.86,0,0,0,5.69-7c1.81-2.48,3.54-5,5.27-7.57s3.47-5.15,5.24-7.7a63.74,63.74,0,0,1,5.43-7.05A12.94,12.94,0,0,1,44.81,14c.27-.21.9-.77,1.18-.45s0,1.33-.16,1.75a12,12,0,0,1-1,2,53.68,53.68,0,0,1-5.31,7.21c-3.93,4.75-8.16,9.27-11.92,14.15a27,27,0,0,0-4.56,7.44,4.3,4.3,0,0,0,.2,3.89,3.26,3.26,0,0,0,3.53,1.24,7.23,7.23,0,0,0,3.08-2.15,26.1,26.1,0,0,0,2.66-3.39c1.72-2.53,3.25-5.19,4.75-7.86s2.91-5.26,4.42-7.85a38.5,38.5,0,0,1,5.07-7.42c.71-.75,2.22-2.16,3.07-.81.68,1.09-.06,2.75-.51,3.79a41.82,41.82,0,0,1-4.79,7.62c-1.52,2.08-3.09,4.11-4.63,6.18-.73,1-1.44,2-2.1,3S36.12,44.75,36.3,46a1.9,1.9,0,0,0,2.43,1.61,7.8,7.8,0,0,0,3.14-2.23,31.79,31.79,0,0,0,2.85-3.31c.23-.3,1-1.23.11-1.34-.49-.06-.89.77-1.13,1.09A28.81,28.81,0,0,1,40.8,45c-.56.51-2.35,2.29-3.15,1.43s.29-2.22.74-2.93C39.13,42.31,40,41.16,40.83,40ZM32.27,14.18c1-1.16,1.94-2.3,3-3.36a12.43,12.43,0,0,1,3.19-2.56c.88-.43.43.54.2,1A19.78,19.78,0,0,1,37.5,11c-.91,1.27-1.91,2.47-2.92,3.65-4,4.71-8.36,9.12-12.5,13.72Q21,29.56,19.89,30.8l1.25-1.67C24.83,24.14,28.32,19,32.27,14.18ZM21.12,12.36a27.2,27.2,0,0,1,5.73-6.45C27,5.78,28,5,28.22,5.23s-.43,1-.54,1.14a37.1,37.1,0,0,1-3,3.39c-1.85,1.93-3.77,3.78-5.68,5.63C19.71,14.37,20.4,13.36,21.12,12.36ZM13.88,31.54c-.94,1.11-1.9,2.2-2.94,3.21a15.27,15.27,0,0,1-1.67,1.43A3.49,3.49,0,0,1,8,36.92a2,2,0,0,1,0-1.77,15.63,15.63,0,0,1,2.8-4.55c1.16-1.45,2.42-2.83,3.71-4.16,2.6-2.69,5.32-5.24,8-7.8,1.51-1.42,3-2.84,4.51-4.3-2.63,3.32-5.1,6.78-7.64,10.16C17.6,26.88,15.81,29.27,13.88,31.54Z"/><path class="cls-2" d="M61.9,41.75,77.32,26.33A18.26,18.26,0,0,0,66,15L50.55,30.4A18.26,18.26,0,0,1,61.9,41.75Z"/><path class="cls-3" d="M61.9,41.75A18.26,18.26,0,0,0,50.55,30.4L49,37.33A18.35,18.35,0,0,1,52.32,40,18.15,18.15,0,0,1,55,43.35Z"/><path class="cls-2" d="M55,43.35A18.15,18.15,0,0,0,52.32,40,18.35,18.35,0,0,0,49,37.32l-1.79,7.82Z"/></g></g></svg>